Coordinates
version=1
nRows=64
nColumns=11
inDegrees=yes

Units are S.I. units (second, meters, Newtons, ...)
If the header above contains a line with 'inDegrees', this indicates whether rotational values are in degrees (yes) or radians (no).

endheader
time	pelvis_tilt	pelvis_tx	pelvis_ty	hip_flexion_l	hip_flexion_r	knee_angle_l	knee_angle_r	ankle_angle_l	ankle_angle_r	lumbar_extension
     11.75000000	     40.73921134	     -0.06818027	      1.08577750	     26.88199478	     29.86804011	    -57.09408431	    -62.21080930	    -40.47098211	    -44.02463671	    -33.87218750
     11.76000000	     40.74092929	     -0.06818392	      1.08577759	     26.88405023	     29.86720226	    -57.09259999	    -62.21102710	    -40.47096977	    -44.02458668	    -33.87228968
     11.77000000	     40.78651466	     -0.06819390	      1.08581626	     26.82993763	     29.81641297	    -57.07964805	    -62.21180570	    -40.49267206	    -44.00949051	    -33.92053087
     11.78000000	     40.78525749	     -0.06821198	      1.08580465	     26.83013569	     29.81979881	    -57.06887904	    -62.21319417	    -40.49319187	    -44.00858654	    -33.92273641
     11.79000000	     40.78512299	     -0.06821414	      1.08580593	     26.82928643	     29.82060103	    -57.06938116	    -62.21262529	    -40.49317903	    -44.00846207	    -33.92273580
     11.80000000	     40.78603895	     -0.06823091	      1.08579161	     26.83222147	     29.81920354	    -57.06744235	    -62.21313050	    -40.49314750	    -44.00882773	    -33.92276858
     11.81000000	     40.78484607	     -0.06820847	      1.08579664	     26.83014495	     29.82010153	    -57.06823761	    -62.21275073	    -40.49308927	    -44.00884214	    -33.92276102
     11.82000000	     40.78504543	     -0.06822099	      1.08579949	     26.82986953	     29.82058290	    -57.06829882	    -62.21244103	    -40.49304596	    -44.00888684	    -33.92274554
     11.83000000	     40.78334162	     -0.06820583	      1.08582688	     26.82835516	     29.82094453	    -57.06891520	    -62.21227820	    -40.49288781	    -44.00897720	    -33.92267625
     11.84000000	     40.78446230	     -0.06821154	      1.08581914	     26.83163229	     29.81813714	    -57.08406641	    -62.20894524	    -40.49129295	    -44.00927117	    -33.92233489
     11.85000000	     40.78718662	     -0.06823505	      1.08577875	     26.83961335	     29.82560823	    -57.10465478	    -62.22072089	    -40.48624621	    -44.01186785	    -33.92638715
     11.86000000	     40.78321264	     -0.06822902	      1.08580565	     26.84145342	     29.82214479	    -57.10702278	    -62.21185503	    -40.48074848	    -44.01130477	    -33.92522552
     11.87000000	     40.78480488	     -0.06821894	      1.08581026	     26.84036477	     29.82139160	    -57.11888036	    -62.21674869	    -40.47673205	    -44.01105750	    -33.92236755
     11.88000000	     40.77925034	     -0.06824735	      1.08583069	     26.84809132	     29.82196847	    -57.12286833	    -62.20448630	    -40.47558373	    -44.01101698	    -33.92543835
     11.89000000	     40.77809688	     -0.06823286	      1.08583798	     26.85006097	     29.82239856	    -57.13610077	    -62.20600498	    -40.47370613	    -44.01153096	    -33.92163580
     11.90000000	     40.73855103	     -0.06823158	      1.08576406	     26.90068231	     29.87200532	    -57.15512854	    -62.21182097	    -40.46802714	    -44.01102441	    -33.88424402
     11.91000000	     40.74634685	     -0.06819244	      1.08577441	     26.89484668	     29.86125579	    -57.17771283	    -62.21528113	    -40.46777181	    -44.01189909	    -33.87732944
     11.92000000	     40.74945225	     -0.06820553	      1.08576028	     26.89725163	     29.85868020	    -57.19641217	    -62.21738837	    -40.46678844	    -44.01174984	    -33.88236922
     11.93000000	     40.75150946	     -0.06820691	      1.08576941	     26.89967829	     29.85545540	    -57.21441890	    -62.21721472	    -40.46453112	    -44.01190811	    -33.88626640
     11.94000000	     40.74745147	     -0.06823691	      1.08578238	     26.90337624	     29.85699689	    -57.21892232	    -62.21031145	    -40.46424586	    -44.01163697	    -33.89095860
     11.95000000	     40.75097505	     -0.06824149	      1.08574282	     26.91084635	     29.85718868	    -57.24519530	    -62.21527306	    -40.46579895	    -44.01228932	    -33.89429738
     11.96000000	     40.75035882	     -0.06824864	      1.08576731	     26.91362217	     29.85497280	    -57.25771704	    -62.21279720	    -40.46747259	    -44.01170665	    -33.89558942
     11.97000000	     40.75037152	     -0.06825042	      1.08576452	     26.91503473	     29.85461934	    -57.26985550	    -62.21419332	    -40.46827460	    -44.01205990	    -33.89753065
     11.98000000	     40.75049392	     -0.06826169	      1.08576674	     26.91581132	     29.85502442	    -57.28441078	    -62.21024965	    -40.46699299	    -44.01264613	    -33.89840843
     11.99000000	     40.74915960	     -0.06827682	      1.08575947	     26.91740302	     29.85912685	    -57.29388027	    -62.21387130	    -40.46455813	    -44.01384215	    -33.90155337
     12.00000000	     40.75029993	     -0.06825903	      1.08577694	     26.92293374	     29.85068231	    -57.32205492	    -62.20581878	    -40.46614361	    -44.01393056	    -33.89905629
     12.01000000	     40.74629747	     -0.06828215	      1.08579025	     26.92879135	     29.85146434	    -57.33196024	    -62.19811178	    -40.46900842	    -44.01399401	    -33.90116937
     12.02000000	     40.75092798	     -0.06827189	      1.08577341	     26.93088629	     29.85434762	    -57.35832312	    -62.20907776	    -40.47134840	    -44.01530551	    -33.90221300
     12.03000000	     40.74568677	     -0.06828497	      1.08579330	     26.93267978	     29.85582745	    -57.36690242	    -62.20112827	    -40.47154484	    -44.01523461	    -33.90239348
     12.04000000	     40.74012625	     -0.06828032	      1.08575087	     26.95160838	     29.86907215	    -57.39825844	    -62.21003355	    -40.47035692	    -44.01878506	    -33.89799438
     12.05000000	     40.73650879	     -0.06829851	      1.08576214	     26.95811234	     29.86686040	    -57.41526587	    -62.19770997	    -40.47022241	    -44.01910527	    -33.89579733
     12.06000000	     40.73440490	     -0.06827235	      1.08575155	     26.95393010	     29.87268170	    -57.40676936	    -62.20391038	    -40.47034047	    -44.01977097	    -33.89211500
     12.07000000	     40.73385303	     -0.06826911	      1.08575556	     26.95858539	     29.87071524	    -57.42255019	    -62.19759996	    -40.47264419	    -44.02016938	    -33.88846241
     12.08000000	     40.73714740	     -0.06825782	      1.08573623	     26.95873262	     29.86888559	    -57.44624149	    -62.19937148	    -40.47421714	    -44.02126739	    -33.88573966
     12.09000000	     40.72830374	     -0.06827980	      1.08574975	     26.98137641	     29.87806009	    -57.48270553	    -62.19671895	    -40.47077385	    -44.02470633	    -33.88838420
     12.10000000	     40.73033881	     -0.06828985	      1.08572560	     26.98325160	     29.87698451	    -57.49397928	    -62.19277244	    -40.47019924	    -44.02543712	    -33.88653721
     12.11000000	     40.73177532	     -0.06827732	      1.08573343	     26.98519734	     29.87609585	    -57.50616615	    -62.19348044	    -40.47182415	    -44.02627326	    -33.88565048
     12.12000000	     40.73062401	     -0.06829413	      1.08573111	     26.98792772	     29.87565130	    -57.51615951	    -62.18947717	    -40.47303360	    -44.02579392	    -33.88715976
     12.13000000	     40.73111039	     -0.06829295	      1.08573529	     26.98696938	     29.87723259	    -57.51737730	    -62.18838532	    -40.47317142	    -44.02582057	    -33.88720086
     12.14000000	     40.73073889	     -0.06828587	      1.08573283	     26.98999885	     29.87401556	    -57.53403456	    -62.18255903	    -40.47445599	    -44.02627191	    -33.88678623
     12.15000000	     40.73231986	     -0.06831010	      1.08574136	     26.99018179	     29.87595433	    -57.53405277	    -62.18223624	    -40.47464689	    -44.02627012	    -33.88700755
     12.16000000	     40.73085232	     -0.06829142	      1.08574099	     26.98903841	     29.87598828	    -57.53536865	    -62.18194532	    -40.47472647	    -44.02626869	    -33.88716841
     12.17000000	     40.73085156	     -0.06829233	      1.08573574	     26.98800130	     29.87708928	    -57.53666892	    -62.18103835	    -40.47488401	    -44.02625800	    -33.88719085
     12.18000000	     40.73222052	     -0.06829684	      1.08573363	     26.99431295	     29.87386991	    -57.55116086	    -62.17838543	    -40.47670497	    -44.03412465	    -33.88783325
     12.19000000	     40.71949121	     -0.06829588	      1.08571583	     27.00989567	     29.89062718	    -57.54952613	    -62.17847661	    -40.50468724	    -44.16129471	    -33.87765128
     12.20000000	     40.71936330	     -0.06829155	      1.08571973	     27.00900209	     29.89140314	    -57.55006477	    -62.17778228	    -40.50466380	    -44.16077445	    -33.87768723
     12.21000000	     40.71992170	     -0.06828394	      1.08573147	     27.00963658	     29.89121214	    -57.54947939	    -62.17823162	    -40.50466587	    -44.16030161	    -33.87764103
     12.22000000	     40.72104029	     -0.06830095	      1.08572292	     27.01077669	     29.89128599	    -57.54837107	    -62.17837179	    -40.50465933	    -44.15981808	    -33.87770621
     12.23000000	     40.72027275	     -0.06829711	      1.08571343	     27.01168531	     29.88999910	    -57.54706937	    -62.17882656	    -40.50462103	    -44.15977120	    -33.87795520
     12.24000000	     40.71298992	     -0.06830793	      1.08574488	     27.01006178	     29.89729729	    -57.52824275	    -62.17704337	    -40.50551547	    -44.15017849	    -33.88003161
     12.25000000	     40.70703396	     -0.06831675	      1.08573841	     27.01505896	     29.89861552	    -57.51412142	    -62.16669179	    -40.50922466	    -44.13757244	    -33.87757017
     12.26000000	     40.70745354	     -0.06831071	      1.08572866	     27.00864238	     29.90442432	    -57.50199913	    -62.17680153	    -40.50852248	    -44.13431828	    -33.87370613
     12.27000000	     40.70822284	     -0.06828275	      1.08568021	     26.99877274	     29.90966758	    -57.47246338	    -62.19128092	    -40.50893866	    -44.13129678	    -33.87143555
     12.28000000	     40.70471986	     -0.06830029	      1.08571954	     27.00343281	     29.90435966	    -57.47524520	    -62.18117381	    -40.50808600	    -44.13197746	    -33.87142479
     12.29000000	     40.70745080	     -0.06830368	      1.08569495	     26.99792036	     29.90846503	    -57.46602575	    -62.18776124	    -40.50470382	    -44.12799114	    -33.87125321
     12.30000000	     40.73679118	     -0.06827300	      1.08572934	     26.95433844	     29.87333914	    -57.43439396	    -62.19473409	    -40.48783323	    -44.05941578	    -33.89729765
     12.31000000	     40.73615521	     -0.06828879	      1.08575366	     26.95874215	     29.86783080	    -57.43929682	    -62.18639867	    -40.48475084	    -44.05929477	    -33.89835214
     12.32000000	     40.73531470	     -0.06825362	      1.08573703	     26.94637285	     29.87426619	    -57.40432010	    -62.20350129	    -40.48358497	    -44.05881031	    -33.89740851
     12.33000000	     40.73279557	     -0.06827961	      1.08573667	     26.94560670	     29.87233754	    -57.38208019	    -62.19527377	    -40.48490335	    -44.05735442	    -33.89882964
     12.34000000	     40.73261516	     -0.06828266	      1.08577017	     26.94688067	     29.87136123	    -57.38178666	    -62.19537768	    -40.48484397	    -44.05728695	    -33.89880258
     12.35000000	     40.73406739	     -0.06826927	      1.08571808	     26.95246855	     29.87522644	    -57.38260801	    -62.20358864	    -40.48075816	    -44.13862130	    -33.90397128
     12.36000000	     40.73389595	     -0.06827332	      1.08571090	     26.94861770	     29.88020751	    -57.36731428	    -62.21020038	    -40.48067888	    -44.13410646	    -33.90356240
     12.37000000	     40.73194777	     -0.06824031	      1.08573162	     26.94040920	     29.87922979	    -57.33678615	    -62.21266656	    -40.48018698	    -44.12834872	    -33.90011380
     12.38000000	     40.73052682	     -0.06825218	      1.08574191	     26.93561539	     29.87558375	    -57.31709108	    -62.20290467	    -40.47991257	    -44.12017638	    -33.89920364
